<svg width="181" height="59" viewBox="0 0 181 59" fill="none" xmlns="http://www.w3.org/2000/svg">
<g clip-path="url(#clip0_405_2)">
<path d="M48.1109 45.9963C43.5818 50.6504 37.2557 53.261 30.7556 53.2437C16.9945 53.2071 6.19483 41.2142 6.19483 28.8268C6.19483 22.8939 7.72306 18.126 10.2792 14.4824C6.89223 18.7674 5.05371 24.2805 5.05371 30.2948C5.05371 43.9377 16.5275 54.5918 30.0926 54.5918C36.3743 54.5918 43.2048 51.3386 48.0654 46.1295C48.0796 46.0848 48.0968 46.0411 48.1109 45.9963Z" fill="#EF6036"/>
<path d="M35.6787 6.23584C38.3972 6.93059 40.9944 8.03857 43.3805 9.52153C41.0202 7.98891 38.4147 6.87738 35.6787 6.23584Z" fill="#EF6036"/>
<path d="M47.9573 46.4782C47.984 46.361 48.0178 46.2456 48.0583 46.1325C43.2018 51.3386 36.3712 54.5918 30.0905 54.5918C16.5255 54.5918 5.05366 43.9397 5.05366 30.2948C5.05366 16.6498 14.5131 5.59114 30.0905 5.59114C36.268 5.58323 42.2198 7.92565 46.7514 12.1483C46.9536 12.3069 47.1669 12.4594 47.3832 12.6057C47.6318 12.7735 47.8885 12.9311 48.1301 13.0998C42.7388 6.74296 34.8561 2.74463 28.2106 2.74463C11.6457 2.74463 0 14.3869 0 29.5272C0 44.6676 12.2026 56.9411 27.2554 56.9411C34.6338 56.9411 42.5609 52.8595 47.9522 46.5046C47.9542 46.4955 47.9552 46.4863 47.9573 46.4782Z" fill="#EE3138"/>
<path d="M9.32223 29.261C9.32223 18.5023 17.7325 6.76753 31.6857 6.76753C37.1962 6.76753 41.7738 8.50491 45.4317 11.2152C45.5459 11.2996 45.8653 11.507 46.124 11.6737C46.1564 11.695 46.2726 11.7692 46.4212 11.877C46.5222 11.9502 46.5718 11.9929 46.5698 11.9899C42.2024 7.70992 36.1693 5.26904 29.6076 5.26904C14.3526 5.26904 6.07373 15.8672 6.07373 28.9408C6.07373 42.0144 17.0907 53.4198 32.2588 53.4198C37.3266 53.4198 41.6768 51.7475 45.0951 48.9325C40.754 51.7668 35.5032 52.5872 30.3434 52.5872C19.6438 52.5872 9.32223 42.2055 9.32223 29.261Z" fill="#D13236"/>
<path d="M40.4355 35.4866C40.4355 38.875 38.1422 44.0902 32.4042 44.0902C28.3613 44.0902 24.4922 41.5619 24.4043 36.2918C24.3275 31.6876 27.4486 29.1653 30.5202 28.6113V23.332C27.416 23.7925 24.5798 25.3602 22.5291 27.749C20.4784 30.1378 19.35 33.1886 19.3496 36.3446C19.3496 43.6083 24.6428 49.2973 32.48 49.2973C39.3288 49.2973 45.5731 43.7862 45.5731 35.7438C45.5731 35.6574 45.568 35.573 45.566 35.4866H40.4355Z" fill="#00AFF0"/>
<path d="M45.572 23.332H32.4526V28.595H45.572V23.332Z" fill="#EE3138"/>
<path d="M40.3394 23.3322V33.5664H45.5719V23.3322H40.3394Z" fill="#EE3138"/>
<path d="M43.3838 22.2695C44.8195 22.2695 45.9834 21.0988 45.9834 19.6548C45.9834 18.2107 44.8195 17.04 43.3838 17.04C41.9481 17.04 40.7842 18.2107 40.7842 19.6548C40.7842 21.0988 41.9481 22.2695 43.3838 22.2695Z" fill="#00AFF0"/>
<path d="M42.1638 44.8323C39.7623 47.2508 36.4026 48.608 32.959 48.5998C25.6595 48.5805 19.9317 42.3466 19.9317 35.9074C19.9317 32.8241 20.7403 30.3466 22.0987 28.4526C20.2996 30.679 19.3232 33.5448 19.3232 36.6719C19.3232 43.7638 25.4089 49.3003 32.6043 49.3003C35.9397 49.3003 39.5591 47.6086 42.1365 44.9014L42.1638 44.8323Z" fill="#0071BC"/>
<path d="M178.298 49.6387H55.5996V50.5221H178.298V49.6387Z" fill="#00AFF0"/>
<path d="M59.1167 56.4524H57.257V58.9146H56.1846V52.9878H59.4442V53.9119H57.257V55.5283H59.1167V56.4524Z" fill="black"/>
<path d="M64.0853 56.7857C64.0853 57.4797 63.9111 58.0219 63.5628 58.4123C63.2144 58.8026 62.7501 58.9982 62.17 58.9988C61.5905 58.9988 61.1276 58.8033 60.7812 58.4123C60.4349 58.0212 60.2617 57.479 60.2617 56.7857V55.1245C60.2617 54.4332 60.4349 53.891 60.7812 53.498C61.1276 53.1049 61.5892 52.9073 62.1659 52.9053C62.7434 52.9053 63.2077 53.1028 63.5587 53.498C63.9098 53.8931 64.0853 54.4353 64.0853 55.1245V56.7857ZM63.021 55.1123C63.021 54.6874 62.9482 54.3668 62.8027 54.1506C62.7338 54.0455 62.6388 53.9604 62.5271 53.9035C62.4154 53.8466 62.291 53.82 62.1659 53.8263C62.0418 53.8195 61.918 53.8456 61.8071 53.9022C61.6962 53.9588 61.6021 54.0438 61.5342 54.1486C61.3934 54.3641 61.323 54.6854 61.323 55.1123V56.7857C61.323 57.2154 61.3948 57.538 61.5383 57.7535C61.6061 57.8583 61.7002 57.9433 61.8111 57.9999C61.9221 58.0564 62.0458 58.0826 62.17 58.0758C62.2941 58.0816 62.4177 58.0549 62.5286 57.9985C62.6394 57.942 62.7339 57.8576 62.8027 57.7535C62.9482 57.538 63.021 57.2154 63.021 56.7857V55.1123Z" fill="black"/>
<path d="M66.2403 56.558V58.9145H65.1709V52.9917H66.9589C67.4979 52.9917 67.9214 53.1459 68.2294 53.4543C68.5373 53.7626 68.6909 54.1906 68.6903 54.7382C68.6973 55.0173 68.631 55.2932 68.4982 55.5383C68.3652 55.7663 68.1707 55.9517 67.9373 56.073C68.1967 56.158 68.4138 56.34 68.5437 56.5814C68.677 56.8603 68.7412 57.1676 68.7307 57.477V57.8958C68.7318 58.0713 68.7494 58.2462 68.7833 58.4184C68.8015 58.5697 68.8658 58.7117 68.9672 58.825V58.9104H67.8625C67.7612 58.792 67.7028 58.6426 67.6967 58.4865C67.6735 58.2881 67.662 58.0885 67.6624 57.8887V57.4821C67.6765 57.241 67.6184 57.0013 67.4956 56.7938C67.4431 56.7151 67.3714 56.6513 67.2873 56.6086C67.2032 56.5659 67.1096 56.5456 67.0155 56.5498L66.2403 56.558ZM66.2403 55.6339H66.9548C67.0488 55.6399 67.1427 55.6235 67.2292 55.586C67.3156 55.5486 67.392 55.4911 67.4521 55.4183C67.5741 55.2395 67.6335 55.0249 67.6209 54.8084C67.6325 54.5802 67.5735 54.3539 67.4521 54.1608C67.3966 54.0823 67.3223 54.0191 67.2361 53.9772C67.1499 53.9353 67.0545 53.9159 66.9589 53.9209H66.2403V55.6339Z" fill="black"/>
<path d="M77.8377 55.5283H77.8609L78.7706 52.9868H79.9339L78.3723 56.8062V58.9147H77.303V56.733L75.7646 52.9878H76.9351L77.8377 55.5283Z" fill="black"/>
<path d="M84.3495 56.7857C84.3495 57.4797 84.1753 58.0219 83.8269 58.4123C83.4786 58.8026 83.0143 58.9982 82.4341 58.9988C81.8547 58.9988 81.3917 58.8033 81.0454 58.4123C80.699 58.0212 80.5259 57.479 80.5259 56.7857V55.1245C80.5259 54.4332 80.699 53.891 81.0454 53.498C81.3917 53.1049 81.8533 52.9073 82.4301 52.9053C83.0076 52.9053 83.4718 53.1028 83.8229 53.498C84.1739 53.8931 84.3495 54.4353 84.3495 55.1245V56.7857ZM83.2842 55.1123C83.2842 54.6874 83.2114 54.3668 83.0659 54.1506C82.9969 54.0455 82.9019 53.9604 82.7903 53.9035C82.6786 53.8466 82.5541 53.82 82.4291 53.8263C82.3049 53.8195 82.1812 53.8456 82.0703 53.9022C81.9593 53.9588 81.8652 54.0438 81.7974 54.1486C81.6565 54.3641 81.5861 54.6854 81.5861 55.1123V56.7857C81.5861 57.2154 81.6579 57.538 81.8014 57.7535C81.8693 57.8583 81.9634 57.9433 82.0743 57.9999C82.1852 58.0564 82.309 58.0826 82.4331 58.0758C82.5573 58.0816 82.6808 58.0549 82.7917 57.9985C82.9026 57.942 82.997 57.8576 83.0659 57.7535C83.2114 57.538 83.2842 57.2154 83.2842 56.7857V55.1123Z" fill="black"/>
<path d="M89.0902 52.9878V57.0217C89.0902 57.654 88.9191 58.1417 88.5768 58.4846C88.2345 58.8275 87.7843 58.9994 87.2264 59C86.6725 59 86.2241 58.8275 85.8811 58.4826C85.5382 58.1376 85.367 57.6507 85.3677 57.0217V52.9878H86.436V57.0217C86.436 57.3826 86.5058 57.649 86.6382 57.8197C86.7087 57.9053 86.7982 57.973 86.8995 58.0175C87.0008 58.062 87.111 58.082 87.2214 58.0759C87.3319 58.0832 87.4426 58.065 87.5451 58.0227C87.6475 57.9804 87.739 57.9152 87.8126 57.8319C87.9474 57.6693 88.0148 57.3982 88.0148 57.0187V52.9878H89.0902Z" fill="black"/>
<path d="M91.3155 56.558V58.9145H90.2461V52.9917H92.0341C92.5731 52.9917 92.9966 53.1459 93.3046 53.4543C93.6125 53.7626 93.7661 54.1906 93.7655 54.7382C93.773 55.0173 93.7067 55.2934 93.5734 55.5383C93.4407 55.7665 93.2461 55.952 93.0125 56.073C93.2717 56.1585 93.4886 56.3403 93.6189 56.5814C93.7513 56.8606 93.8151 57.1678 93.8049 57.477V57.8958C93.8059 58.0713 93.8235 58.2462 93.8574 58.4184C93.8762 58.5696 93.9403 58.7115 94.0414 58.825V58.9104H92.9377C92.8364 58.792 92.778 58.6426 92.7719 58.4865C92.7492 58.288 92.7377 58.0885 92.7376 57.8887V57.4821C92.7517 57.241 92.6936 57.0013 92.5708 56.7938C92.5183 56.7151 92.4466 56.6513 92.3625 56.6086C92.2784 56.5659 92.1848 56.5456 92.0907 56.5498L91.3155 56.558ZM91.3155 55.6339H92.03C92.1239 55.6399 92.2179 55.6235 92.3044 55.586C92.3908 55.5486 92.4672 55.4911 92.5273 55.4183C92.6497 55.2397 92.7091 55.025 92.6961 54.8084C92.7082 54.5801 92.6492 54.3538 92.5273 54.1608C92.4719 54.0822 92.3976 54.019 92.3114 53.9771C92.2251 53.9351 92.1297 53.9158 92.0341 53.9209H91.3155V55.6339Z" fill="black"/>
<path d="M104.663 57.0054L104.674 57.0298C104.679 57.6818 104.536 58.1728 104.246 58.5028C103.955 58.8329 103.526 58.9986 102.958 59C102.391 59 101.938 58.8119 101.6 58.4358C101.261 58.0596 101.093 57.5272 101.094 56.8387V55.0677C101.094 54.3818 101.258 53.8495 101.585 53.4706C101.913 53.0918 102.351 52.9023 102.899 52.9023C103.481 52.9023 103.919 53.0718 104.213 53.4106C104.508 53.7495 104.661 54.2473 104.674 54.9041L104.663 54.9284H103.631C103.647 54.5394 103.598 54.2588 103.485 54.0867C103.371 53.9149 103.175 53.8295 102.894 53.8295C102.783 53.8253 102.673 53.8514 102.576 53.9051C102.478 53.9588 102.397 54.0381 102.34 54.1345C102.213 54.3378 102.148 54.6428 102.148 55.0586V56.8397C102.148 57.2578 102.216 57.5689 102.351 57.7729C102.416 57.8719 102.505 57.9521 102.611 58.0055C102.716 58.059 102.833 58.084 102.951 58.0779C103.21 58.0779 103.39 57.9973 103.491 57.836C103.592 57.6746 103.637 57.3985 103.625 57.0074L104.663 57.0054Z" fill="black"/>
<path d="M109.4 56.7857C109.4 57.4797 109.225 58.0219 108.876 58.4123C108.527 58.8026 108.063 58.9982 107.483 58.9988C106.904 58.9988 106.441 58.8033 106.095 58.4123C105.748 58.0212 105.575 57.479 105.575 56.7857V55.1245C105.575 54.4332 105.748 53.891 106.095 53.498C106.441 53.1049 106.903 52.9073 107.48 52.9053C108.057 52.9053 108.521 53.1028 108.872 53.498C109.223 53.8931 109.399 54.4353 109.4 55.1245V56.7857ZM108.334 55.1123C108.334 54.6874 108.262 54.3668 108.116 54.1506C108.047 54.0457 107.953 53.9606 107.841 53.9037C107.73 53.8469 107.605 53.8202 107.48 53.8263C107.356 53.8193 107.232 53.8454 107.121 53.902C107.01 53.9585 106.916 54.0436 106.848 54.1486C106.707 54.3641 106.636 54.6854 106.636 55.1123V56.7857C106.636 57.2154 106.708 57.538 106.852 57.7535C106.92 57.8583 107.014 57.9433 107.125 57.9999C107.236 58.0564 107.359 58.0826 107.483 58.0758C107.608 58.0816 107.731 58.0549 107.842 57.9985C107.953 57.942 108.047 57.8576 108.116 57.7535C108.262 57.538 108.334 57.2154 108.334 56.7857V55.1123Z" fill="black"/>
<path d="M114.314 58.9146H113.248L111.574 55.1247L111.551 55.1328V58.9146H110.479V52.9878H111.551L113.226 56.7737L113.248 56.7655V52.9878H114.314V58.9146Z" fill="black"/>
<path d="M118.469 56.4524H116.609V58.9146H115.537V52.9878H118.796V53.9119H116.609V55.5283H118.469V56.4524Z" fill="black"/>
<path d="M123.405 52.9878V57.0217C123.405 57.654 123.233 58.1417 122.89 58.4846C122.547 58.8275 122.099 58.9994 121.545 59C120.991 59 120.542 58.8275 120.199 58.4826C119.857 58.1376 119.685 57.6507 119.686 57.0217V52.9878H120.754V57.0217C120.754 57.3829 120.822 57.649 120.957 57.8197C121.027 57.9053 121.117 57.973 121.218 58.0175C121.319 58.062 121.429 58.082 121.54 58.0759C121.65 58.0832 121.761 58.065 121.863 58.0227C121.966 57.9804 122.057 57.9152 122.131 57.8319C122.266 57.6693 122.333 57.3982 122.333 57.0187V52.9878H123.405Z" fill="black"/>
<path d="M126.993 57.3672C127.003 57.171 126.944 56.9773 126.827 56.8203C126.661 56.6473 126.462 56.5115 126.241 56.4218C125.67 56.2076 125.243 55.964 124.959 55.6909C124.675 55.4177 124.532 55.0358 124.531 54.5451C124.524 54.3229 124.564 54.1018 124.65 53.8969C124.736 53.6921 124.865 53.5084 125.029 53.3587C125.376 53.0467 125.831 52.8824 126.296 52.9003C126.532 52.8909 126.767 52.9313 126.986 53.0188C127.205 53.1064 127.404 53.2391 127.569 53.4086C127.731 53.5793 127.857 53.7816 127.938 54.0032C128.02 54.2247 128.055 54.4607 128.043 54.6966L128.036 54.721H126.997C127.007 54.4863 126.941 54.2545 126.809 54.0612C126.746 53.9861 126.669 53.9248 126.582 53.8815C126.495 53.8382 126.4 53.8137 126.303 53.8097C126.206 53.8057 126.109 53.8222 126.019 53.8581C125.928 53.8941 125.847 53.9488 125.779 54.0185C125.657 54.1665 125.594 54.3543 125.601 54.5461C125.598 54.6363 125.615 54.726 125.65 54.8091C125.685 54.8923 125.737 54.9669 125.803 55.028C126.012 55.2016 126.245 55.3437 126.495 55.4499C127.015 55.639 127.406 55.8796 127.668 56.1717C127.93 56.4638 128.061 56.8579 128.061 57.354C128.061 57.8671 127.903 58.2686 127.587 58.5587C127.271 58.8488 126.851 58.9942 126.326 58.9948C125.829 59.0035 125.345 58.8272 124.969 58.4997C124.587 58.1704 124.402 57.6959 124.414 57.0765L124.421 57.0521H125.464C125.464 57.4181 125.536 57.6814 125.679 57.842C125.822 58.0016 126.037 58.0819 126.326 58.0819C126.42 58.0898 126.514 58.0764 126.601 58.0426C126.689 58.0088 126.768 57.9555 126.832 57.8867C126.944 57.7379 127.001 57.554 126.993 57.3672Z" fill="black"/>
<path d="M132.029 56.3131H130.189V57.9905H132.353V58.9146H129.118V52.9878H132.353V53.9119H130.196V55.39H132.036L132.029 56.3131Z" fill="black"/>
<path d="M133.295 58.9144V52.9875H134.951C135.221 52.9831 135.489 53.0433 135.732 53.1631C135.975 53.283 136.186 53.459 136.348 53.6768C136.714 54.1363 136.897 54.7286 136.897 55.4538V56.4511C136.897 57.1749 136.714 57.7663 136.348 58.2251C136.186 58.4417 135.975 58.6168 135.733 58.7364C135.491 58.8559 135.225 58.9166 134.955 58.9134L133.295 58.9144ZM134.368 53.9116V57.9903H134.891C135.034 57.9924 135.175 57.954 135.297 57.8794C135.419 57.8047 135.518 57.6969 135.582 57.5684C135.743 57.2878 135.824 56.915 135.824 56.4501V55.4437C135.824 54.9821 135.743 54.6114 135.582 54.3315C135.517 54.2035 135.418 54.0962 135.296 54.022C135.174 53.9478 135.034 53.9095 134.891 53.9116H134.368Z" fill="black"/>
<path d="M145.608 52.988L146.591 57.339H146.613L147.607 52.988H149.002V58.9148H147.938V57.1927L148.028 54.889H148.006L146.961 58.9148H146.253L145.218 54.9175H145.195L145.289 57.1886V58.9107H144.225V52.9839L145.608 52.988Z" fill="black"/>
<path d="M153.889 56.7857C153.889 57.4797 153.715 58.0219 153.365 58.4123C153.016 58.8026 152.553 58.9982 151.974 58.9988C151.394 58.9988 150.931 58.8033 150.585 58.4123C150.239 58.0212 150.066 57.479 150.065 56.7857V55.1245C150.065 54.4332 150.239 53.891 150.585 53.498C150.931 53.1049 151.393 52.9073 151.97 52.9053C152.547 52.9053 153.011 53.1028 153.362 53.498C153.714 53.8931 153.889 54.4353 153.889 55.1245V56.7857ZM152.823 55.1123C152.823 54.6874 152.75 54.3668 152.604 54.1506C152.536 54.0457 152.441 53.9606 152.329 53.9037C152.218 53.8469 152.093 53.8202 151.969 53.8263C151.844 53.8193 151.72 53.8454 151.609 53.902C151.498 53.9585 151.404 54.0436 151.336 54.1486C151.196 54.3641 151.126 54.6854 151.126 55.1123V56.7857C151.126 57.2154 151.197 57.538 151.34 57.7535C151.413 57.8533 151.508 57.9345 151.618 57.9904C151.728 58.0463 151.849 58.0755 151.972 58.0755C152.095 58.0755 152.217 58.0463 152.326 57.9904C152.436 57.9345 152.532 57.8533 152.604 57.7535C152.75 57.538 152.823 57.2154 152.823 56.7857V55.1123Z" fill="black"/>
<path d="M156.34 52.9878L157.323 57.3389H157.346L158.339 52.9878H159.735V58.9146H158.67V57.1925L158.761 54.8889H158.738L157.692 58.9187H156.984L155.949 54.9214H155.927L156.021 57.1925V58.9146H154.956V52.9878H156.34Z" fill="black"/>
<path d="M163.84 56.3131H161.999V57.9905H164.163V58.9146H160.929V52.9878H164.163V53.9119H162.006V55.39H163.84V56.3131Z" fill="black"/>
<path d="M168.944 58.9146H167.883L166.208 55.1247L166.186 55.1328V58.9146H165.112V52.9878H166.186L167.86 56.7737L167.883 56.7655V52.9878H168.948L168.944 58.9146Z" fill="black"/>
<path d="M173.281 53.9119H172.047V58.9146H170.978V53.9119H169.75V52.9878H173.281V53.9119Z" fill="black"/>
<path d="M176.557 57.3672C176.567 57.1709 176.509 56.9772 176.391 56.8203C176.227 56.6482 176.028 56.5131 175.808 56.4238C175.238 56.2096 174.811 55.966 174.526 55.6928C174.242 55.4197 174.099 55.0378 174.099 54.5471C174.091 54.3249 174.132 54.1038 174.218 53.8989C174.304 53.6941 174.433 53.5104 174.596 53.3607C174.944 53.0484 175.399 52.8841 175.865 52.9022C176.1 52.8929 176.335 52.9334 176.554 53.0209C176.773 53.1085 176.971 53.2412 177.136 53.4105C177.298 53.5813 177.424 53.7836 177.506 54.0052C177.587 54.2267 177.623 54.4627 177.61 54.6986L177.603 54.723H176.564C176.575 54.4883 176.509 54.2565 176.376 54.0632C176.314 53.9881 176.237 53.9269 176.15 53.8835C176.063 53.8402 175.968 53.8157 175.871 53.8117C175.774 53.8077 175.677 53.8242 175.587 53.8602C175.497 53.8961 175.415 53.9508 175.347 54.0205C175.225 54.1684 175.161 54.3562 175.168 54.5481C175.166 54.6383 175.182 54.728 175.217 54.8111C175.252 54.8942 175.304 54.9689 175.37 55.03C175.58 55.2035 175.813 55.3457 176.063 55.4519C176.582 55.641 176.973 55.8816 177.235 56.1737C177.497 56.4658 177.628 56.8599 177.628 57.356C177.628 57.8691 177.47 58.2706 177.154 58.5607C176.838 58.8508 176.418 58.9961 175.894 58.9968C175.396 59.0055 174.913 58.8292 174.536 58.5017C174.154 58.1723 173.969 57.6979 173.982 57.0785L173.99 57.0541H175.032C175.032 57.4201 175.103 57.6834 175.246 57.844C175.389 58.0036 175.605 58.0839 175.894 58.0839C175.987 58.0918 176.081 58.0783 176.169 58.0445C176.256 58.0107 176.335 57.9575 176.399 57.8887C176.511 57.739 176.567 57.5543 176.557 57.3672Z" fill="black"/>
<path fill-rule="evenodd" clip-rule="evenodd" d="M80.6394 20.8793H69.2545C67.1737 20.8793 66.133 20.002 66.1323 18.2473C66.1355 17.7521 66.2007 17.2592 66.3264 16.7804L69.2231 4.73862C69.8821 2.00733 71.5266 0.641004 74.1565 0.639648H85.5414L85.2554 3.70981C84.6591 3.37569 83.6935 3.20862 82.3586 3.20862H76.457C76.0587 3.20862 75.7626 3.29707 75.5645 3.46989C75.3664 3.64272 75.1986 3.96498 75.0692 4.43059L72.0239 17.0793C71.9719 17.2645 71.946 17.4561 71.9471 17.6486C71.9471 17.8946 72.0138 18.0613 72.1492 18.1447C72.2847 18.228 72.502 18.2758 72.8123 18.2758H78.7089C80.0356 18.2758 81.0865 18.1189 81.8613 17.8051L80.6374 20.8763L80.6394 20.8793ZM102.441 9.98128C102.523 9.59497 102.573 9.27575 102.604 9.03075C102.632 8.82859 102.647 8.62488 102.65 8.42078C102.65 6.78608 101.695 5.96804 99.7837 5.96669H87.0484L86.0923 8.53973C86.525 8.41404 86.9666 8.32161 87.4133 8.26321C87.857 8.214 88.3032 8.19126 88.7495 8.1951H96.7737C96.9829 8.1951 97.1305 8.24186 97.2225 8.33641C97.3144 8.43095 97.3549 8.61292 97.3549 8.89452L97.1315 9.87149C97.0143 10.3361 96.6979 10.5709 96.1935 10.5709H88.6888C87.8216 10.5709 87.0919 10.7224 86.5006 11.0304C85.9093 11.3385 85.404 11.8559 84.9845 12.597C84.5651 13.3381 84.1891 14.373 83.8626 15.7099C83.714 16.2782 83.6018 16.7956 83.5301 17.2551C83.4694 17.644 83.4356 18.0367 83.429 18.4303C83.429 19.3382 83.6483 19.9756 84.092 20.3365C84.5357 20.6974 85.2392 20.8793 86.2085 20.8793H92.8298C93.2999 20.8894 93.7639 20.7706 94.1721 20.5357C94.5339 20.306 94.8867 19.9034 95.2384 19.3453L95.3091 19.3402L95.1767 20.8753H100.11C100.11 19.9766 100.273 18.8583 100.599 17.5205L102.441 9.98026V9.98128ZM96.4007 12.9213L95.3122 17.4798C95.205 17.8814 95.0575 18.1589 94.8745 18.3104C94.6544 18.4664 94.3884 18.5434 94.1195 18.5289H89.3974C89.2093 18.543 89.0213 18.5013 88.8566 18.409C88.8001 18.3607 88.7558 18.2995 88.7275 18.2306C88.6992 18.1616 88.6877 18.0868 88.6939 18.0125L88.7545 17.4798L89.5914 14.002C89.6986 13.6055 89.836 13.328 89.9957 13.1663C90.1554 13.0047 90.4192 12.9213 90.7659 12.9213H96.4007ZM117.861 5.96567L117.052 9.25542C116.057 9.06735 114.874 8.9789 113.514 8.9789H111.493C110.896 8.9789 110.529 9.23407 110.391 9.75661L108.493 17.5266C108.162 18.8631 107.997 19.9813 107.999 20.8814H102.061C102.429 20.124 102.801 19.0067 103.173 17.5266L105.162 9.3276C105.488 7.96026 105.651 6.83792 105.651 5.97279H110.762L110.568 7.63799H110.63C110.87 7.01718 111.201 6.58377 111.624 6.33775C112.048 6.09275 112.676 5.97279 113.511 5.97279L117.861 5.96567ZM122.804 12.4506H129.349L130.093 9.38046L130.154 8.85284C130.154 8.65969 130.103 8.51838 129.995 8.4401C129.888 8.36182 129.71 8.31506 129.45 8.31506H124.732C124.45 8.30134 124.172 8.38217 123.941 8.54481C123.777 8.70137 123.645 8.9789 123.537 9.38046L122.808 12.4506H122.804ZM134.132 14.801L135.301 9.98636C135.383 9.59497 135.433 9.28185 135.465 9.03583C135.492 8.83157 135.507 8.62585 135.51 8.41977C135.51 6.78506 134.553 5.96703 132.639 5.96567H122.656C121.443 5.96567 120.457 6.28895 119.712 6.93145C118.967 7.57395 118.427 8.59158 118.095 9.98128L116.407 16.8942C116.325 17.2592 116.275 17.5672 116.243 17.8021C116.216 18.0083 116.2 18.2161 116.198 18.4242C116.198 19.265 116.438 19.881 116.923 20.2826C117.408 20.6842 118.121 20.8783 119.069 20.8783H132.235L133.281 18.3368C132.705 18.451 132.119 18.5139 131.532 18.5249H122.257C122.07 18.539 121.882 18.4972 121.718 18.4049C121.66 18.3551 121.615 18.2922 121.587 18.2215C121.558 18.1508 121.547 18.0743 121.554 17.9983L121.615 17.4595L122.257 14.7919L134.132 14.801ZM142.08 12.4506H148.624L149.369 9.38046L149.431 8.85284C149.431 8.65969 149.379 8.51838 149.272 8.4401C149.165 8.36182 148.987 8.31506 148.726 8.31506H144.008C143.727 8.30134 143.449 8.38217 143.218 8.54481C143.054 8.70137 142.922 8.9789 142.814 9.38046L142.084 12.4506H142.08ZM153.409 14.801H141.534L140.896 17.4686L140.836 18.0074C140.829 18.0833 140.84 18.1598 140.868 18.2305C140.896 18.3012 140.941 18.3642 140.998 18.4141C141.163 18.5064 141.351 18.5481 141.539 18.534H150.813C151.4 18.5232 151.986 18.4602 152.562 18.346L151.517 20.8875H138.346C137.397 20.8875 136.683 20.6892 136.198 20.2917C135.713 19.8943 135.475 19.2751 135.475 18.4334C135.477 18.2253 135.492 18.0175 135.52 17.8112C135.55 17.5764 135.602 17.2683 135.684 16.9034L137.372 9.99043C137.703 8.60072 138.239 7.5831 138.989 6.9406C139.739 6.2981 140.718 5.97482 141.932 5.97482H151.913C153.827 5.97482 154.784 6.79285 154.786 8.42892C154.783 8.63504 154.767 8.84078 154.739 9.04498C154.709 9.291 154.658 9.60412 154.576 9.99551L153.408 14.8102L153.409 14.801ZM169.997 5.96567H165.646C164.81 5.96567 164.182 6.08563 163.759 6.33063C163.335 6.57564 163.004 7.00973 162.764 7.63088H162.703L162.897 5.96567H157.786C157.786 6.83284 157.623 7.95518 157.296 9.32049L155.307 17.5194C154.939 19.0027 154.567 20.1199 154.195 20.8743H160.133C160.133 19.9756 160.298 18.8573 160.628 17.5194L162.526 9.75966C162.663 9.23712 163.031 8.98195 163.628 8.98195H165.649C167.011 8.98195 168.194 9.0704 169.187 9.25847L169.997 5.96567Z" fill="black"/>
<path fill-rule="evenodd" clip-rule="evenodd" d="M95.6536 46.0249L95.688 44.438H95.6536C95.1004 45.4959 94.3818 46.0249 93.4977 46.0249H85.7848C84.6919 46.0249 83.8658 45.7965 83.3065 45.3397C82.7486 44.8772 82.4727 44.1676 82.4727 43.1987C82.4755 42.9607 82.493 42.723 82.5252 42.4871C82.5606 42.2157 82.6192 41.8619 82.7132 41.44L84.6579 33.4789C85.0389 31.8798 85.6565 30.7076 86.5196 29.9676C87.3828 29.2275 88.5047 28.8554 89.9086 28.8554H97.3042C97.856 28.8554 98.2199 28.9814 98.3907 29.2336C98.5837 29.4084 98.7424 29.8893 98.8546 30.6649H98.9951L99.9876 26.5822C100.176 25.7832 100.317 25.0492 100.422 24.3874C100.513 23.8368 100.564 23.2802 100.575 22.7222H107.066L102.355 42.1679C101.974 43.707 101.784 44.9947 101.786 46.031L95.6536 46.0249ZM89.4497 43.3197H94.8824C95.2473 43.3197 95.5344 43.2353 95.7517 43.0615C95.969 42.8877 96.1277 42.5674 96.257 42.0988L98.4806 32.7785L98.5453 32.1777C98.5453 31.955 98.4867 31.7924 98.3685 31.7019C98.2502 31.6114 98.0339 31.5575 97.7408 31.5575H92.3051C91.9788 31.5418 91.6564 31.6351 91.3883 31.8229C91.2064 32.0028 91.0538 32.3159 90.9244 32.7785L88.7109 42.0988L88.6401 42.7179C88.6325 42.8037 88.6456 42.8902 88.6783 42.9698C88.7111 43.0495 88.7625 43.12 88.8281 43.1754C88.9575 43.2709 89.1627 43.3197 89.4508 43.3197H89.4497ZM111.646 43.3197H117.079C117.444 43.3197 117.731 43.2353 117.943 43.0615C118.156 42.8877 118.324 42.5674 118.449 42.0988L120.663 32.7785L120.734 32.1777C120.734 31.955 120.675 31.7924 120.552 31.7019C120.429 31.6114 120.223 31.5575 119.923 31.5575H114.496C114.172 31.5427 113.852 31.6359 113.586 31.8229C113.403 32.0028 113.25 32.3159 113.121 32.7785L110.908 42.0988L110.837 42.7179C110.829 42.8037 110.842 42.8902 110.875 42.9698C110.908 43.0495 110.959 43.12 111.025 43.1754C111.154 43.2709 111.359 43.3197 111.647 43.3197H111.646ZM119.469 46.0249C120.407 46.0249 121.23 45.8572 121.941 45.5166C122.647 45.1734 123.249 44.647 123.685 43.9917C124.143 43.3248 124.494 42.4668 124.719 41.4359L126.664 33.4749C126.758 33.0306 126.817 32.6616 126.852 32.381C126.883 32.1477 126.901 31.9128 126.904 31.6775C126.904 29.7961 125.802 28.854 123.597 28.8513H112.105C110.707 28.8513 109.573 29.2244 108.716 29.9635C107.859 30.7026 107.237 31.8757 106.855 33.4749L104.914 41.437C104.82 41.8588 104.761 42.2126 104.726 42.4841C104.694 42.7199 104.676 42.9576 104.673 43.1957C104.673 44.1645 104.949 44.8741 105.507 45.3367C106.065 45.7992 106.888 46.0219 107.981 46.0219L119.469 46.0249ZM146.608 38.1228L145.609 42.2126C145.022 44.7562 143.307 46.0286 140.464 46.03H126.373L126.613 43.0717C127.09 43.2262 127.579 43.3351 128.076 43.397L130.537 43.4692H138.002C138.365 43.4822 138.723 43.3751 139.019 43.1642C139.292 42.9631 139.493 42.6774 139.589 42.3509L139.83 41.4248C139.83 40.6491 139.477 40.2638 138.779 40.2638H130.984C129.057 40.2638 128.094 39.362 128.094 37.5586C128.104 36.8971 128.191 36.239 128.352 35.5975L128.88 33.5298C129.263 31.9479 129.852 30.7754 130.649 30.0123C131.442 29.2478 132.476 28.8635 133.738 28.8635H148.364L148.124 31.8218C147.331 31.5575 146.023 31.4254 144.2 31.4254H136.449C135.698 31.4254 135.245 31.768 135.11 32.4471L134.907 33.2532C134.907 33.6599 134.972 33.9384 135.095 34.0889C135.219 34.2393 135.442 34.3115 135.747 34.3115H143.289C145.615 34.3115 146.779 35.1587 146.779 36.8531C146.772 37.285 146.715 37.7147 146.608 38.133V38.1228ZM155.366 36.3254H162.902L163.759 32.7897L163.83 32.1797C163.83 31.9571 163.771 31.7944 163.648 31.7039C163.524 31.6134 163.319 31.5596 163.019 31.5596H157.586C157.262 31.544 156.942 31.6373 156.677 31.8249C156.489 32.0048 156.336 32.3241 156.207 32.7866L155.367 36.3224L155.366 36.3254ZM168.411 39.0317L169.757 33.4871C169.851 33.0367 169.909 32.6738 169.945 32.3932C169.976 32.1573 169.994 31.9196 169.997 31.6816C169.997 29.8002 168.895 28.8581 166.69 28.8554H155.196C153.797 28.8554 152.669 29.2285 151.806 29.9676C150.943 30.7066 150.326 31.8798 149.944 33.4789L147.999 41.44C147.905 41.8619 147.847 42.2157 147.811 42.4871C147.78 42.723 147.762 42.9607 147.759 43.1987C147.759 44.1676 148.035 44.8772 148.593 45.3397C149.151 45.8023 149.973 46.0249 151.066 46.0249H166.227L167.431 43.1042C166.767 43.2353 166.092 43.3078 165.415 43.3207H154.737C154.449 43.3207 154.244 43.2719 154.114 43.1825C154.049 43.1254 153.998 43.0537 153.965 42.9732C153.933 42.8927 153.919 42.8056 153.926 42.7189L153.997 42.0998L154.737 39.0276L168.411 39.0317Z" fill="black"/>
<path d="M174.684 0.854969H173.123V5.12473H172.074V0.854969H170.535V0H174.679L174.684 0.854969Z" fill="black"/>
<path d="M177.011 0L178.325 3.71571L179.622 0H181V5.12372H179.948V3.72283L180.049 1.30533L178.677 5.12372H177.956L176.585 1.30939L176.686 3.72283V5.12372H175.636V0H177.011Z" fill="black"/>
</g>
<defs>
<clipPath id="clip0_405_2">
<rect width="181" height="59" fill="white"/>
</clipPath>
</defs>
</svg>
